<mxfile host="app.diagrams.net" agent="Mozilla/5.0 (Macintosh; Intel Mac OS X 10_15_7) AppleWebKit/537.36 (KHTML, like Gecko) Chrome/129.0.0.0 Safari/537.36" version="24.7.17">
  <diagram id="WvHjm1HEhhVKs3oMtiiu" name="Page-1">
    <mxGraphModel dx="754" dy="539" grid="1" gridSize="10" guides="1" tooltips="1" connect="1" arrows="1" fold="1" page="1" pageScale="1" pageWidth="1100" pageHeight="850" math="1" shadow="0">
      <root>
        <mxCell id="0" />
        <mxCell id="1" parent="0" />
        <mxCell id="xBYAKWbB2OGDabFkx_kC-5" value="" style="rounded=1;whiteSpace=wrap;html=1;fillColor=none;aspect=fixed;dashed=1;strokeColor=#000000;" parent="1" vertex="1">
          <mxGeometry x="75" y="105" width="50" height="50" as="geometry" />
        </mxCell>
        <mxCell id="xBYAKWbB2OGDabFkx_kC-3" value="" style="rounded=1;whiteSpace=wrap;html=1;fillColor=none;aspect=fixed;dashed=1;strokeColor=#000000;" parent="1" vertex="1">
          <mxGeometry x="75" y="35" width="50" height="50" as="geometry" />
        </mxCell>
        <mxCell id="xBYAKWbB2OGDabFkx_kC-2" value="&lt;div style=&quot;&quot;&gt;&lt;span style=&quot;background-color: initial;&quot;&gt;&lt;font face=&quot;Helvetica&quot; style=&quot;font-size: 17px;&quot;&gt;$$-$$&lt;/font&gt;&lt;/span&gt;&lt;/div&gt;" style="rounded=1;whiteSpace=wrap;html=1;fillColor=none;aspect=fixed;align=center;" parent="1" vertex="1">
          <mxGeometry x="80" y="40" width="40" height="40" as="geometry" />
        </mxCell>
        <mxCell id="xBYAKWbB2OGDabFkx_kC-4" value="&lt;font face=&quot;Helvetica&quot; style=&quot;font-size: 17px;&quot;&gt;$$+$$&lt;/font&gt;" style="rounded=1;whiteSpace=wrap;html=1;fillColor=none;aspect=fixed;verticalAlign=middle;horizontal=1;labelPosition=center;verticalLabelPosition=middle;align=center;fontSize=16;" parent="1" vertex="1">
          <mxGeometry x="80" y="110" width="40" height="40" as="geometry" />
        </mxCell>
        <mxCell id="xBYAKWbB2OGDabFkx_kC-12" value="" style="rounded=1;whiteSpace=wrap;html=1;fillColor=none;aspect=fixed;dashed=1;strokeColor=#000000;" parent="1" vertex="1">
          <mxGeometry x="110" y="175" width="50" height="50" as="geometry" />
        </mxCell>
        <mxCell id="xBYAKWbB2OGDabFkx_kC-13" value="&lt;font style=&quot;font-size: 17px;&quot;&gt;$$8$$&lt;/font&gt;" style="rounded=1;whiteSpace=wrap;html=1;fillColor=none;aspect=fixed;verticalAlign=middle;horizontal=1;labelPosition=center;verticalLabelPosition=middle;align=center;fontSize=16;" parent="1" vertex="1">
          <mxGeometry x="115" y="180" width="40" height="40" as="geometry" />
        </mxCell>
        <mxCell id="xBYAKWbB2OGDabFkx_kC-14" value="" style="rounded=1;whiteSpace=wrap;html=1;fillColor=none;aspect=fixed;dashed=1;strokeColor=#000000;" parent="1" vertex="1">
          <mxGeometry x="40" y="175" width="50" height="50" as="geometry" />
        </mxCell>
        <mxCell id="xBYAKWbB2OGDabFkx_kC-15" value="&lt;font face=&quot;Helvetica&quot; style=&quot;font-size: 19px;&quot;&gt;$$x$$&lt;/font&gt;" style="rounded=1;whiteSpace=wrap;html=1;fillColor=none;aspect=fixed;verticalAlign=middle;horizontal=1;labelPosition=center;verticalLabelPosition=middle;align=center;fontSize=16;" parent="1" vertex="1">
          <mxGeometry x="45" y="180" width="40" height="40" as="geometry" />
        </mxCell>
        <mxCell id="xBYAKWbB2OGDabFkx_kC-16" style="edgeStyle=orthogonalEdgeStyle;rounded=0;orthogonalLoop=1;jettySize=auto;html=1;entryX=0.318;entryY=-0.012;entryDx=0;entryDy=0;entryPerimeter=0;endSize=2;exitX=0.25;exitY=1;exitDx=0;exitDy=0;" parent="1" source="xBYAKWbB2OGDabFkx_kC-2" edge="1">
          <mxGeometry relative="1" as="geometry">
            <mxPoint x="100" y="90" as="sourcePoint" />
            <mxPoint x="90" y="105" as="targetPoint" />
            <Array as="points">
              <mxPoint x="90" y="90" />
              <mxPoint x="90" y="90" />
            </Array>
          </mxGeometry>
        </mxCell>
        <mxCell id="xBYAKWbB2OGDabFkx_kC-17" style="edgeStyle=orthogonalEdgeStyle;rounded=1;orthogonalLoop=1;jettySize=auto;html=1;exitX=0.75;exitY=1;exitDx=0;exitDy=0;entryX=0.621;entryY=-0.001;entryDx=0;entryDy=0;endSize=2;entryPerimeter=0;" parent="1" source="xBYAKWbB2OGDabFkx_kC-2" target="xBYAKWbB2OGDabFkx_kC-12" edge="1">
          <mxGeometry relative="1" as="geometry">
            <Array as="points">
              <mxPoint x="110" y="95" />
              <mxPoint x="141" y="95" />
            </Array>
            <mxPoint x="111" y="80" as="sourcePoint" />
            <mxPoint x="138" y="165" as="targetPoint" />
          </mxGeometry>
        </mxCell>
        <mxCell id="xBYAKWbB2OGDabFkx_kC-19" style="rounded=0;orthogonalLoop=1;jettySize=auto;html=1;exitX=0.25;exitY=1;exitDx=0;exitDy=0;entryX=0.5;entryY=0;entryDx=0;entryDy=0;endSize=2;" parent="1" source="xBYAKWbB2OGDabFkx_kC-4" target="xBYAKWbB2OGDabFkx_kC-14" edge="1">
          <mxGeometry relative="1" as="geometry">
            <mxPoint x="90" y="155" as="sourcePoint" />
            <mxPoint x="67" y="180" as="targetPoint" />
          </mxGeometry>
        </mxCell>
        <mxCell id="xBYAKWbB2OGDabFkx_kC-20" style="rounded=0;orthogonalLoop=1;jettySize=auto;html=1;exitX=0.75;exitY=1;exitDx=0;exitDy=0;entryX=0.382;entryY=0.002;entryDx=0;entryDy=0;endSize=2;entryPerimeter=0;" parent="1" source="xBYAKWbB2OGDabFkx_kC-4" target="xBYAKWbB2OGDabFkx_kC-12" edge="1">
          <mxGeometry relative="1" as="geometry">
            <mxPoint x="100" y="160" as="sourcePoint" />
            <mxPoint x="75" y="185" as="targetPoint" />
          </mxGeometry>
        </mxCell>
        <mxCell id="E562748UrakpwenO2PT4-4" value="" style="rounded=0;whiteSpace=wrap;html=1;fillColor=none;strokeColor=none;" vertex="1" parent="1">
          <mxGeometry x="39" y="195" width="1" height="10" as="geometry" />
        </mxCell>
      </root>
    </mxGraphModel>
  </diagram>
</mxfile>
